<svg fill="#ffffff" xmlns="http://www.w3.org/2000/svg"  viewBox="0 0 30 30" width="100px" height="100px"><path d="M11.068 17.089H9.344c-.251 0-.455-.194-.455-.436v-3.305c0-.241.204-.436.455-.436s.455.196.455.436v2.87h1.27c.251 0 .455.196.455.436C11.523 16.893 11.32 17.089 11.068 17.089zM13.082 16.652c0 .241-.204.438-.455.438-.251 0-.455-.196-.455-.438v-3.305c0-.24.204-.436.455-.436.251 0 .455.196.455.436V16.652zM17.46 16.652c0 .188-.119.354-.297.414-.044.016-.09.023-.137.023-.136 0-.265-.065-.346-.175l-1.683-2.308v2.045c0 .24-.194.438-.434.438-.24 0-.434-.196-.434-.438v-3.305c0-.188.12-.354.297-.414.045-.016.092-.022.137-.022.136 0 .265.065.346.175l1.683 2.308v-2.046c0-.24.196-.436.434-.436.238 0 .431.196.431.436v3.305H17.46zM20.655 14.562c.251 0 .456.196.456.438 0 .24-.204.436-.456.436h-1.27v.781h1.27c.251 0 .456.196.456.436s-.204.436-.456.436h-1.725c-.251 0-.455-.196-.455-.438V15v-.001-.001-1.65-.001c0-.24.204-.436.455-.436h1.725c.251 0 .456.196.456.436 0 .241-.204.436-.456.436h-1.27v.781L20.655 14.562 20.655 14.562z"/><path d="M24,4H6C4.895,4,4,4.895,4,6v18c0,1.105,0.895,2,2,2h18c1.105,0,2-0.895,2-2V6C26,4.895,25.105,4,24,4z M21.725,18.882c-1.795,2.066-5.809,4.583-6.722,4.968c-0.912,0.384-0.777-0.246-0.741-0.462c0.022-0.128,0.122-0.732,0.122-0.732c0.029-0.219,0.059-0.557-0.028-0.774c-0.097-0.237-0.475-0.362-0.754-0.422c-4.112-0.544-7.155-3.419-7.155-6.851c0-3.828,3.839-6.943,8.556-6.943s8.556,3.114,8.556,6.943C23.559,16.142,22.965,17.523,21.725,18.882z"/></svg>